<?xml version="1.0" encoding="UTF-8" standalone="no"?><!DOCTYPE svg PUBLIC "-//W3C//DTD SVG 1.1//EN" "http://www.w3.org/Graphics/SVG/1.1/DTD/svg11.dtd"><svg width="100%" height="100%" viewBox="0 0 143 150" version="1.1" xmlns="http://www.w3.org/2000/svg" xmlns:xlink="http://www.w3.org/1999/xlink" xml:space="preserve" style="fill-rule:evenodd;clip-rule:evenodd;stroke-linejoin:round;stroke-miterlimit:1.41421;"><path id="Shape" d="M46.111,9c-6.645,0 -14.689,4.637 -18,10.375l-25.5,44.25c-3.312,5.741 -3.31,15.012 0,20.75l25.5,44.25c3.312,5.741 11.368,10.375 18,10.375l51,0c6.645,0 14.69,-4.637 18,-10.375l25.5,-44.25c3.312,-5.741 3.311,-15.012 0,-20.75l-25.5,-44.25c-3.312,-5.741 -11.367,-10.375 -18,-10.375l-51,0l0,0Zm29.063,13.719c8.111,0 14.897,5.354 16.719,12.531c0.662,-0.113 1.36,-0.188 2.062,-0.188c5.704,0.001 10.313,3.955 10.313,8.844c0,1.899 -0.689,3.654 -1.875,5.094l-71.938,0c-0.018,-0.176 -0.031,-0.349 -0.031,-0.531c0,-3.259 3.072,-5.907 6.875,-5.907c1.881,0.001 3.601,0.671 4.844,1.719c0.909,-5.333 6.456,-9.283 12.843,-8.937c1.158,0.063 2.271,0.277 3.313,0.593c1.433,-6.973 7.516,-12.372 15.062,-13.124c0.599,-0.061 1.198,-0.094 1.813,-0.094Zm-54.875,28.094l101.312,0l0,1.687l-101.312,0l0,-1.687Zm0.031,3.468l31.25,0l0,10l-18.75,0l0,5l18.75,0l0,25l-31.25,0l0,-10l18.75,0l0,-5l-18.75,0l0,-25Zm35,0l32.5,0l0,10l-20,0l0,20l20,0l0,10l-32.5,0l0,-40Zm36.25,0l30,0l0,40l-30,0l0,-10l17.5,0l0,-5l-17.5,0l0,-25Zm12.5,10l0,5l5,0l0,-5l-5,0Zm-83.781,31.75l101.312,0l0,1.688l-101.312,0l0,-1.688Z" style="fill:#fff;fill-rule:nonzero;"/></svg>